<svg xmlns="http://www.w3.org/2000/svg" width="130" height="22" viewBox="0 0 130 22" fill="none"><g clip-path="url(#clip0_16_56)"><path fill-rule="evenodd" clip-rule="evenodd" d="M9.54524 4.35514L11.8554 9.25975C11.9403 9.44502 12.112 9.57574 12.3132 9.60827L17.4787 10.3948C17.7123 10.44 17.902 10.6101 17.9724 10.8373C18.0429 11.0645 17.9827 11.312 17.8157 11.4815L14.0779 15.2992C13.9335 15.4488 13.8687 15.658 13.903 15.8631L14.7854 21.2538C14.8335 21.4855 14.7443 21.7243 14.556 21.8677C14.3677 22.011 14.1137 22.0335 13.9032 21.9254L9.28294 19.3803C9.10693 19.2827 8.89307 19.2827 8.71706 19.3803L4.09683 21.9254C3.88627 22.0335 3.63235 22.011 3.44403 21.8677C3.25571 21.7243 3.16647 21.4855 3.21461 21.2538L4.09699 15.8631C4.13132 15.658 4.06645 15.4488 3.92212 15.2992L0.184282 11.4815C0.0173574 11.312 -0.0428461 11.0645 0.0276058 10.8373C0.0980576 10.6101 0.287747 10.4401 0.521264 10.3948L5.68683 9.60827C5.88802 9.57574 6.05973 9.44502 6.14464 9.25976L8.45475 4.35514C8.55017 4.13926 8.76397 4 9 4C9.23603 4 9.44983 4.13926 9.54524 4.35514Z" fill="#F6AB27"></path><path fill-rule="evenodd" clip-rule="evenodd" d="M11.2934 8.06861C9.80351 8.86528 8.42768 9.85905 7.2031 11.0231C5.89794 12.2726 4.79076 13.7136 3.91966 15.2965L0.183131 11.4824C0.0162136 11.3128 -0.0438279 11.0652 0.0269106 10.838C0.0976491 10.6108 0.287684 10.441 0.521357 10.3962L5.68554 9.60792C5.88645 9.57456 6.05815 9.44462 6.14485 9.26034L8.45379 4.35379C8.55025 4.13853 8.76412 4 9 4C9.23588 4 9.44976 4.13853 9.54621 4.35379L11.2934 8.06861Z" fill="#F4CD1E"></path></g><g clip-path="url(#clip1_16_56)"><path fill-rule="evenodd" clip-rule="evenodd" d="M37.5452 3.35514L39.8554 8.25975C39.9403 8.44502 40.112 8.57574 40.3132 8.60827L45.4787 9.39476C45.7123 9.44004 45.902 9.61009 45.9724 9.83729C46.0429 10.0645 45.9827 10.312 45.8157 10.4815L42.0779 14.2992C41.9335 14.4488 41.8687 14.658 41.903 14.8631L42.7854 20.2538C42.8335 20.4855 42.7443 20.7243 42.556 20.8677C42.3677 21.011 42.1137 21.0335 41.9032 20.9254L37.2829 18.3803C37.1069 18.2827 36.8931 18.2827 36.7171 18.3803L32.0968 20.9254C31.8863 21.0335 31.6323 21.011 31.444 20.8677C31.2557 20.7243 31.1665 20.4855 31.2146 20.2538L32.097 14.8631C32.1313 14.658 32.0665 14.4488 31.9221 14.2992L28.1843 10.4815C28.0174 10.312 27.9572 10.0645 28.0276 9.8373C28.0981 9.6101 28.2877 9.44006 28.5213 9.39478L33.6868 8.60827C33.888 8.57574 34.0597 8.44502 34.1446 8.25976L36.4548 3.35514C36.5502 3.13926 36.764 3 37 3C37.236 3 37.4498 3.13926 37.5452 3.35514Z" fill="#F6AB27"></path><path fill-rule="evenodd" clip-rule="evenodd" d="M39.2934 7.06861C37.8035 7.86528 36.4277 8.85905 35.2031 10.0231C33.8979 11.2726 32.7908 12.7136 31.9197 14.2965L28.1831 10.4824C28.0162 10.3128 27.9562 10.0652 28.0269 9.838C28.0976 9.61083 28.2877 9.44103 28.5214 9.3962L33.6855 8.60792C33.8864 8.57456 34.0581 8.44462 34.1448 8.26034L36.4538 3.35379C36.5502 3.13853 36.7641 3 37 3C37.2359 3 37.4498 3.13853 37.5462 3.35379L39.2934 7.06861Z" fill="#F4CD1E"></path></g><g clip-path="url(#clip2_16_56)"><path fill-rule="evenodd" clip-rule="evenodd" d="M65.5453 2.35514L67.8554 7.25975C67.9403 7.44502 68.112 7.57574 68.3132 7.60827L73.4787 8.39476C73.7123 8.44004 73.902 8.61009 73.9724 8.83729C74.0429 9.06449 73.9827 9.31203 73.8157 9.48148L70.0779 13.2992C69.9336 13.4488 69.8687 13.658 69.903 13.8631L70.7854 19.2538C70.8335 19.4855 70.7443 19.7243 70.556 19.8677C70.3677 20.011 70.1137 20.0335 69.9032 19.9254L65.2829 17.3803C65.1069 17.2827 64.8931 17.2827 64.7171 17.3803L60.0968 19.9254C59.8863 20.0335 59.6324 20.011 59.444 19.8677C59.2557 19.7243 59.1665 19.4855 59.2146 19.2538L60.097 13.8631C60.1313 13.658 60.0665 13.4488 59.9221 13.2992L56.1843 9.48148C56.0174 9.31202 55.9572 9.06449 56.0276 8.8373C56.0981 8.6101 56.2878 8.44006 56.5213 8.39478L61.6868 7.60827C61.888 7.57574 62.0597 7.44502 62.1446 7.25976L64.4548 2.35514C64.5502 2.13926 64.764 2 65 2C65.236 2 65.4498 2.13926 65.5453 2.35514Z" fill="#F6AB27"></path><path fill-rule="evenodd" clip-rule="evenodd" d="M67.2935 6.06861C65.8035 6.86528 64.4277 7.85905 63.2031 9.0231C61.8979 10.2726 60.7908 11.7136 59.9197 13.2965L56.1831 9.48241C56.0162 9.31285 55.9562 9.06518 56.0269 8.838C56.0977 8.61083 56.2877 8.44103 56.5214 8.3962L61.6855 7.60792C61.8865 7.57456 62.0582 7.44462 62.1449 7.26034L64.4538 2.35379C64.5502 2.13853 64.7641 2 65 2C65.2359 2 65.4498 2.13853 65.5462 2.35379L67.2935 6.06861Z" fill="#F4CD1E"></path></g><g clip-path="url(#clip3_16_56)"><path fill-rule="evenodd" clip-rule="evenodd" d="M93.5453 1.35514L95.8554 6.25975C95.9403 6.44502 96.112 6.57574 96.3132 6.60827L101.479 7.39476C101.712 7.44004 101.902 7.61009 101.972 7.83729C102.043 8.06449 101.983 8.31203 101.816 8.48148L98.0779 12.2992C97.9336 12.4488 97.8687 12.658 97.903 12.8631L98.7854 18.2538C98.8335 18.4855 98.7443 18.7243 98.556 18.8677C98.3677 19.011 98.1137 19.0335 97.9032 18.9254L93.2829 16.3803C93.1069 16.2827 92.8931 16.2827 92.7171 16.3803L88.0968 18.9254C87.8863 19.0335 87.6324 19.011 87.444 18.8677C87.2557 18.7243 87.1665 18.4855 87.2146 18.2538L88.097 12.8631C88.1313 12.658 88.0665 12.4488 87.9221 12.2992L84.1843 8.48148C84.0174 8.31202 83.9572 8.06449 84.0276 7.8373C84.0981 7.6101 84.2878 7.44006 84.5213 7.39478L89.6868 6.60827C89.888 6.57574 90.0597 6.44502 90.1446 6.25976L92.4548 1.35514C92.5502 1.13926 92.764 1 93 1C93.236 1 93.4498 1.13926 93.5453 1.35514Z" fill="#F6AB27"></path><path fill-rule="evenodd" clip-rule="evenodd" d="M95.2935 5.06861C93.8035 5.86528 92.4277 6.85905 91.2031 8.0231C89.8979 9.27256 88.7908 10.7136 87.9197 12.2965L84.1831 8.48241C84.0162 8.31285 83.9562 8.06518 84.0269 7.838C84.0977 7.61083 84.2877 7.44103 84.5214 7.3962L89.6855 6.60792C89.8865 6.57456 90.0582 6.44462 90.1449 6.26034L92.4538 1.35379C92.5502 1.13853 92.7641 1 93 1C93.2359 1 93.4498 1.13853 93.5462 1.35379L95.2935 5.06861Z" fill="#F4CD1E"></path></g><g clip-path="url(#clip4_16_56)"><path fill-rule="evenodd" clip-rule="evenodd" d="M121.545 0.355145L123.855 5.25975C123.94 5.44502 124.112 5.57574 124.313 5.60827L129.479 6.39476C129.712 6.44004 129.902 6.61009 129.972 6.83729C130.043 7.06449 129.983 7.31203 129.816 7.48148L126.078 11.2992C125.934 11.4488 125.869 11.658 125.903 11.8631L126.785 17.2538C126.834 17.4855 126.744 17.7243 126.556 17.8677C126.368 18.011 126.114 18.0335 125.903 17.9254L121.283 15.3803C121.107 15.2827 120.893 15.2827 120.717 15.3803L116.097 17.9254C115.886 18.0335 115.632 18.011 115.444 17.8677C115.256 17.7243 115.166 17.4855 115.215 17.2538L116.097 11.8631C116.131 11.658 116.066 11.4488 115.922 11.2992L112.184 7.48148C112.017 7.31202 111.957 7.06449 112.028 6.8373C112.098 6.6101 112.288 6.44006 112.521 6.39478L117.687 5.60827C117.888 5.57574 118.06 5.44502 118.145 5.25976L120.455 0.355145C120.55 0.13926 120.764 0 121 0C121.236 0 121.45 0.13926 121.545 0.355145Z" fill="#F6AB27"></path><path fill-rule="evenodd" clip-rule="evenodd" d="M123.293 4.06861C121.804 4.86528 120.428 5.85905 119.203 7.0231C117.898 8.27256 116.791 9.71358 115.92 11.2965L112.183 7.48241C112.016 7.31285 111.956 7.06518 112.027 6.838C112.098 6.61083 112.288 6.44103 112.521 6.3962L117.686 5.60792C117.886 5.57456 118.058 5.44462 118.145 5.26034L120.454 0.353787C120.55 0.138533 120.764 0 121 0C121.236 0 121.45 0.138533 121.546 0.353787L123.293 4.06861Z" fill="#F4CD1E"></path></g><defs><clipPath id="clip0_16_56"><rect width="18" height="18" fill="white" transform="translate(0 4)"></rect></clipPath><clipPath id="clip1_16_56"><rect width="18" height="18" fill="white" transform="translate(28 3)"></rect></clipPath><clipPath id="clip2_16_56"><rect width="18" height="18" fill="white" transform="translate(56 2)"></rect></clipPath><clipPath id="clip3_16_56"><rect width="18" height="18" fill="white" transform="translate(84 1)"></rect></clipPath><clipPath id="clip4_16_56"><rect width="18" height="18" fill="white" transform="translate(112)"></rect></clipPath></defs></svg>