<svg xmlns="http://www.w3.org/2000/svg" width="20" height="20" viewBox="0 0 20 20" fill="none"><g clip-path="url(#clip0_8_6)"><path d="M10 19.1666C15.0626 19.1666 19.1667 15.0626 19.1667 9.99998C19.1667 4.93737 15.0626 0.833313 10 0.833313C4.93738 0.833313 0.833328 4.93737 0.833328 9.99998C0.833328 15.0626 4.93738 19.1666 10 19.1666Z" fill="url(#paint0_linear_8_6)"></path><path d="M8.33333 14.1666C8.11234 14.1666 7.90041 14.0788 7.74417 13.9225L5.24417 11.4225C5.09237 11.2653 5.00837 11.0548 5.01027 10.8363C5.01217 10.6178 5.09981 10.4088 5.25432 10.2543C5.40882 10.0998 5.61783 10.0121 5.83633 10.0102C6.05483 10.0083 6.26533 10.0923 6.4225 10.2441L8.33333 12.155L13.5775 6.91081C13.7347 6.75901 13.9452 6.67501 14.1637 6.67691C14.3822 6.67881 14.5912 6.76645 14.7457 6.92096C14.9002 7.07546 14.9878 7.28447 14.9897 7.50297C14.9916 7.72147 14.9076 7.93197 14.7558 8.08914L8.9225 13.9225C8.76625 14.0788 8.55433 14.1666 8.33333 14.1666Z" fill="white"></path></g><defs><linearGradient id="paint0_linear_8_6" x1="10" y1="0.79748" x2="10" y2="19.1308" gradientUnits="userSpaceOnUse"><stop stop-color="#71FF7B"></stop><stop offset="1" stop-color="#27F42C"></stop></linearGradient><clipPath id="clip0_8_6"><rect width="20" height="20" fill="white"></rect></clipPath></defs></svg>