<svg xmlns="http://www.w3.org/2000/svg" width="46" height="46" viewBox="0 0 46 46" fill="none"><circle cx="23" cy="23" r="23" fill="#6FDA44"></circle><path d="M30.4339 17.3651C27.6296 17.3651 25.5132 19.2169 24.6667 22.127C23.3439 20.0635 22.2857 17.7354 21.7037 15.7249H18.7407V23.5026C18.7407 25.037 17.4709 26.3069 15.9365 26.3069C14.4021 26.3069 13.1323 25.037 13.1323 23.5026V15.7778H10.2751V23.5555C10.2751 26.7831 12.8677 29.3756 16.0423 29.3756C19.2169 29.3756 21.8095 26.7831 21.8095 23.5555V22.2328C22.3915 23.3968 23.1323 24.6667 23.9259 25.7778L22.0741 34.4021H25.0899L26.3598 28.1058C27.5238 28.8465 28.8466 29.2698 30.4339 29.2698C33.6614 29.2698 36.3069 26.6243 36.3069 23.2381C36.3069 20.0106 33.6614 17.3651 30.4339 17.3651ZM30.4339 26.3069C29.2698 26.3069 28.0529 25.7778 27.1005 24.9841L27.418 23.8201V23.7672C27.6296 22.4973 28.3175 20.3809 30.4868 20.3809C32.127 20.3809 33.4497 21.7037 33.4497 23.3439C33.3968 24.9841 31.9683 26.3069 30.4339 26.3069Z" fill="white"></path></svg>